<?xml version="1.0" standalone="no"?>
<!DOCTYPE svg PUBLIC "-//W3C//DTD SVG 20010904//EN"
 "http://www.w3.org/TR/2001/REC-SVG-20010904/DTD/svg10.dtd">
<svg version="1.0" xmlns="http://www.w3.org/2000/svg"
 width="1080.000000pt" height="1080.000000pt" viewBox="0 0 1080.000000 1080.000000"
 preserveAspectRatio="xMidYMid meet">

<g transform="translate(0.000000,1080.000000) scale(0.100000,-0.100000)"
fill="#000000" stroke="none">
<path d="M4371 8641 c-9 -6 -8 -66 2 -91 40 -108 51 -204 32 -293 -14 -70 -55
-145 -82 -154 -7 -3 -18 7 -24 21 -7 14 -18 26 -26 26 -7 0 -13 4 -13 9 0 5
-10 11 -22 14 -30 8 -65 -26 -140 -137 -85 -127 -105 -172 -117 -260 -15 -103
-14 -161 2 -223 12 -44 12 -53 0 -57 -7 -3 -13 -12 -13 -20 0 -16 -25 -66 -37
-75 -5 -3 -27 -28 -48 -56 -22 -27 -55 -65 -73 -83 -24 -24 -31 -38 -27 -53 9
-27 -10 -71 -57 -138 -22 -31 -38 -66 -38 -82 0 -36 -12 -42 -57 -30 -48 14
-67 -1 -60 -45 6 -39 1 -47 -24 -33 -17 8 -19 6 -19 -21 0 -16 -3 -30 -6 -30
-12 0 -32 28 -36 49 -7 45 -23 24 -26 -34 -3 -74 -42 -139 -76 -129 -12 3 -24
9 -28 13 -10 10 -13 65 -4 80 6 9 -7 27 -43 60 -54 49 -62 67 -34 73 13 2 5
14 -31 48 -27 25 -53 44 -59 42 -5 -2 -22 8 -36 21 -32 31 -64 47 -89 47 -11
0 -25 6 -31 13 -12 15 -81 21 -81 8 0 -17 -34 -22 -46 -7 -9 13 -18 13 -49 5
-30 -9 -47 -7 -81 6 -28 10 -55 14 -74 10 -21 -5 -39 -2 -54 8 -13 9 -42 17
-65 19 -23 2 -41 8 -42 13 0 12 -58 44 -80 45 -9 0 -27 8 -40 19 -13 10 -43
22 -66 26 -39 6 -61 25 -30 25 28 1 -29 30 -60 30 -22 0 -36 6 -43 20 -13 24
-44 26 -93 5 -50 -21 -54 -19 -49 15 4 28 2 30 -19 25 -13 -3 -42 -9 -64 -13
-37 -7 -40 -10 -47 -51 -9 -52 -23 -71 -53 -71 -14 0 -25 -7 -27 -18 -3 -12
-28 -27 -66 -41 -34 -13 -71 -31 -82 -41 -26 -23 -26 -50 0 -50 27 0 25 -12
-6 -40 -17 -17 -23 -31 -19 -47 3 -12 1 -25 -5 -28 -5 -3 -10 -17 -10 -30 0
-13 -5 -27 -11 -30 -5 -4 -9 -19 -7 -33 2 -17 -2 -26 -9 -25 -7 2 -10 -3 -7
-10 3 -8 -9 -43 -26 -79 -16 -37 -30 -72 -30 -80 -1 -7 -8 -31 -16 -53 -20
-51 -44 -178 -44 -232 0 -38 -4 -45 -50 -81 l-50 -40 -178 5 -177 5 -70 -35
c-82 -41 -103 -61 -144 -143 -25 -50 -31 -75 -33 -135 -1 -41 2 -86 7 -101 10
-38 -5 -35 -35 7 -14 19 -28 35 -32 35 -16 0 -8 -87 9 -101 13 -11 17 -11 20
-1 3 6 10 12 16 12 8 0 7 -4 -1 -12 -25 -25 -12 -186 20 -255 23 -48 108 -54
163 -11 37 29 55 16 76 -58 9 -34 24 -76 33 -96 30 -63 134 -100 182 -63 27
20 54 19 79 -5 20 -18 20 -25 11 -85 -11 -76 0 -107 45 -126 41 -17 90 -6 210
46 125 54 159 86 187 177 49 156 59 168 153 168 49 0 69 4 69 13 0 7 -14 40
-30 74 -17 34 -33 76 -36 93 -4 17 -11 33 -15 36 -5 3 -9 14 -9 25 0 21 -26
113 -39 139 -4 8 -6 32 -3 52 2 21 1 46 -3 55 -7 17 -8 16 -15 -2 -6 -14 -9
-6 -9 30 -1 57 -10 95 -21 95 -5 0 -11 -8 -13 -17 -3 -10 -5 -1 -6 19 0 20 3
39 8 42 5 3 7 15 4 25 -3 10 0 22 6 26 7 4 13 -5 17 -22 3 -16 15 -33 27 -38
30 -13 31 -61 2 -58 -11 1 -14 0 -7 -3 6 -3 12 -19 12 -34 0 -31 15 -48 24
-28 3 7 3 -4 0 -25 -5 -31 -4 -36 10 -31 12 5 16 0 16 -21 0 -46 70 -134 132
-166 20 -10 54 -21 76 -25 46 -7 139 12 160 33 12 12 10 13 -14 7 -16 -4 -63
-8 -104 -8 -92 -1 -118 13 -152 83 -43 84 -15 174 66 215 42 21 53 17 37 -12
-16 -30 -13 -108 4 -142 44 -86 160 -99 243 -26 22 19 22 19 22 -2 0 -12 5
-22 10 -22 6 0 10 5 10 11 0 6 6 9 14 6 35 -14 35 125 1 163 -8 9 -15 22 -15
28 0 7 -4 12 -10 12 -5 0 -16 15 -23 33 -8 17 -21 38 -30 46 -10 7 -17 23 -17
35 -1 12 -18 36 -41 56 -22 19 -55 50 -74 68 -19 17 -39 32 -45 32 -5 0 -10
11 -10 23 0 39 -31 57 -109 64 -60 5 -68 8 -54 19 17 11 17 13 1 31 -12 14
-15 32 -12 75 6 74 44 118 135 153 123 48 244 66 459 66 275 1 410 -29 530
-115 26 -19 62 -42 79 -51 18 -9 45 -36 60 -60 16 -25 31 -42 35 -38 3 3 6 0
6 -8 0 -20 66 -22 103 -2 65 33 148 -13 199 -110 17 -33 22 -60 22 -123 1 -76
-1 -84 -33 -132 -36 -52 -75 -82 -108 -82 -10 0 -24 -5 -30 -11 -8 -8 -13 -8
-17 0 -4 6 -14 11 -22 11 -10 0 -14 -12 -14 -45 0 -38 4 -48 30 -66 19 -14 36
-41 46 -73 22 -65 152 -202 200 -212 20 -4 45 -22 68 -50 45 -53 92 -69 161
-54 79 18 140 60 140 98 0 13 18 16 120 17 66 1 131 -2 145 -8 103 -41 130
-57 130 -80 0 -16 -10 -28 -33 -39 -52 -25 -91 -63 -114 -110 -36 -75 -38 -82
-73 -270 -9 -47 -15 -57 -35 -62 -13 -3 -43 -29 -67 -56 -24 -28 -48 -50 -55
-50 -6 0 -9 -9 -6 -21 5 -18 3 -20 -17 -14 -19 6 -22 4 -17 -9 10 -25 -26 -20
-57 9 -20 19 -28 21 -32 11 -7 -17 17 -65 43 -87 73 -60 127 -99 139 -99 8 0
35 15 61 33 38 27 56 33 87 31 46 -4 68 -20 46 -34 -11 -7 -16 -5 -18 6 -4 16
-26 14 -28 -2 0 -5 -4 -17 -9 -27 -10 -23 -7 -26 40 -28 57 -3 95 -24 95 -53
0 -20 -4 -23 -32 -20 -18 2 -41 7 -51 10 -20 6 -89 -14 -83 -25 3 -4 31 -13
63 -20 77 -17 87 -23 91 -55 5 -42 -19 -44 -156 -9 -32 8 -60 -21 -77 -81 -9
-28 -19 -57 -24 -65 -14 -21 -43 -4 -80 47 -45 62 -218 205 -238 198 -11 -5
-13 -2 -8 11 4 10 7 27 6 38 -2 11 -2 64 -2 118 1 114 15 155 72 205 32 27 36
36 30 60 -5 17 -15 28 -29 30 -12 2 -27 12 -32 23 -6 10 -15 19 -21 19 -5 0
-52 20 -103 45 -52 25 -133 58 -181 74 -48 17 -88 32 -89 33 -9 12 -26 91 -26
115 0 37 -11 47 -73 62 -41 10 -57 9 -118 -10 -63 -19 -70 -24 -65 -42 3 -14
-2 -30 -16 -44 -28 -30 -36 -29 -52 9 -13 31 -12 34 32 98 24 36 59 81 77 101
64 72 145 207 145 241 -1 19 -31 52 -65 70 -102 53 -140 59 -200 28 -22 -11
-45 -20 -52 -20 -7 0 -13 -4 -13 -9 0 -5 -29 -19 -64 -31 -74 -24 -150 -70
-166 -99 -12 -23 -37 -27 -74 -10 -34 16 -93 3 -123 -27 -13 -13 -30 -24 -38
-24 -8 0 -40 -22 -70 -50 -30 -27 -64 -50 -74 -50 -10 0 -24 -6 -30 -14 -6 -7
-40 -16 -75 -20 -83 -8 -157 -34 -163 -56 -3 -10 -14 -21 -25 -24 -18 -4 -20
-10 -15 -42 4 -20 16 -47 27 -59 26 -28 91 -60 150 -74 121 -28 179 -40 220
-46 85 -12 97 -25 67 -70 -8 -11 -26 -51 -42 -90 -15 -38 -33 -83 -41 -100
-11 -26 -10 -32 7 -57 23 -31 18 -48 -13 -48 -23 0 -23 1 6 -147 7 -40 10 -73
5 -73 -5 0 -21 22 -37 50 -34 63 -59 66 -91 10 -21 -38 -30 -44 -58 -41 -8 1
-13 -11 -13 -33 0 -27 -11 -50 -42 -91 -37 -49 -47 -56 -72 -52 -15 2 -76 -7
-135 -20 -71 -16 -154 -26 -252 -30 l-145 -6 -37 44 c-41 48 -48 93 -23 154
14 31 12 45 -5 45 -16 0 -77 -149 -87 -213 -6 -38 -18 -79 -26 -92 -15 -22
-14 -24 16 -34 17 -6 43 -11 57 -11 14 0 49 -7 76 -15 152 -47 237 -59 420
-60 175 0 182 1 237 27 35 16 88 56 140 106 90 86 150 121 175 100 21 -17 113
-204 113 -228 0 -12 5 -18 10 -15 7 4 10 95 10 253 0 254 8 322 42 371 23 32
42 18 33 -25 -4 -26 -2 -34 9 -34 18 0 27 -125 11 -152 -7 -13 -5 -21 10 -32
12 -9 15 -15 7 -16 -10 0 -13 -19 -11 -74 1 -40 -1 -78 -4 -83 -4 -6 0 -19 8
-29 8 -10 15 -35 15 -54 0 -19 7 -46 15 -60 8 -14 14 -35 15 -46 0 -12 7 -27
15 -34 22 -18 15 -52 -13 -66 -12 -6 -33 -20 -45 -31 -12 -12 -41 -30 -64 -42
-44 -22 -68 -53 -59 -76 3 -8 -15 -29 -42 -51 -26 -20 -51 -42 -57 -48 -5 -6
-23 -17 -38 -24 -16 -7 -31 -21 -34 -32 -3 -11 -12 -20 -19 -20 -8 0 -18 -8
-21 -17 -4 -10 -17 -31 -29 -48 -50 -67 -52 -186 -4 -310 10 -27 22 -62 25
-77 6 -30 19 -34 60 -18 24 9 26 14 21 45 -19 109 -22 98 31 123 62 29 128 26
163 -6 14 -12 44 -28 68 -34 39 -10 43 -13 38 -34 -4 -14 -2 -24 4 -24 5 0 10
5 10 11 0 5 4 8 10 4 5 -3 7 -11 4 -18 -3 -9 11 -13 51 -14 31 -1 62 -7 70
-13 17 -14 24 -10 96 52 31 26 62 48 69 48 9 0 11 -19 8 -72 -6 -86 13 -237
36 -290 23 -55 72 -105 122 -128 142 -62 307 -40 434 59 76 59 94 43 104 -89
10 -134 25 -190 56 -221 74 -74 216 -35 277 75 24 44 28 62 28 131 -1 115 -5
137 -65 330 -5 17 -12 49 -16 73 -4 23 -10 42 -14 42 -7 0 -30 -45 -30 -61 0
-22 -43 -99 -55 -99 -10 0 -14 21 -14 85 0 87 -26 175 -50 175 -16 0 -13 -12
9 -40 24 -31 27 -118 5 -161 -13 -24 -19 -28 -35 -19 -11 6 -21 6 -25 1 -8
-14 -48 -9 -61 8 -8 10 -13 11 -18 3 -28 -45 -44 49 -32 184 4 46 13 54 59 56
l42 1 -38 4 c-43 5 -57 25 -35 51 9 10 20 58 27 121 6 57 16 110 21 116 6 7
28 15 49 19 21 3 62 22 92 41 51 34 55 41 77 108 31 100 30 104 -20 114 -50
10 -52 24 -6 36 71 19 142 -10 131 -53 -3 -11 11 -30 40 -54 24 -19 54 -56 67
-80 12 -25 40 -57 61 -72 46 -32 49 -56 14 -104 -13 -18 -32 -55 -41 -82 -16
-50 -16 -52 2 -274 5 -60 3 -78 -15 -115 -12 -24 -25 -63 -28 -87 -9 -68 2
-76 279 -206 52 -24 59 -32 69 -69 15 -57 75 -195 102 -237 12 -18 30 -45 39
-59 9 -14 17 -38 17 -53 1 -15 5 -29 10 -32 4 -3 6 -27 4 -53 -10 -104 -12
-98 30 -101 29 -3 37 -7 37 -23 0 -17 4 -20 29 -14 24 5 29 2 34 -16 3 -12 4
-26 1 -31 -3 -5 -58 -8 -122 -7 l-116 1 -30 -56 c-22 -42 -27 -59 -18 -68 7
-7 76 -13 195 -16 173 -4 185 -3 225 17 24 12 48 33 54 46 6 14 14 25 18 25
14 0 30 52 30 97 0 29 -6 53 -17 65 -14 16 -14 22 -3 44 12 22 11 29 -4 55
-10 17 -24 52 -31 78 -8 25 -25 74 -40 108 -27 66 -64 296 -52 327 9 22 30 20
101 -8 34 -13 110 -32 171 -40 60 -9 115 -22 121 -29 7 -7 42 -68 78 -137 71
-134 131 -203 186 -215 55 -12 108 4 148 44 54 55 62 67 62 95 0 14 5 28 10
31 6 3 10 16 10 28 -1 21 -1 21 -14 4 -10 -13 -15 -15 -18 -5 -3 7 -13 13 -24
13 -14 0 -20 8 -22 33 -2 18 -9 44 -17 58 -9 19 -11 34 -4 51 14 36 11 49 -6
27 -14 -18 -14 -18 -15 8 0 15 -4 30 -10 33 -5 3 -7 19 -3 35 3 19 1 30 -5 30
-16 0 -32 67 -25 101 3 18 1 29 -6 29 -6 0 -11 -9 -11 -19 0 -11 -4 -23 -10
-26 -5 -3 -13 -20 -18 -37 -6 -25 -4 -36 10 -50 10 -10 18 -27 18 -37 0 -11 4
-21 9 -23 5 -1 11 -19 13 -38 1 -19 5 -37 8 -40 10 -10 30 -50 30 -60 0 -11
-24 -22 -72 -34 -24 -5 -28 -3 -28 14 0 12 -7 20 -17 20 -13 0 -14 3 -5 12 18
18 15 26 -10 30 -20 3 -18 5 15 21 42 20 48 31 13 25 -17 -4 -23 -1 -19 9 3 7
11 13 19 13 8 0 14 5 14 10 0 13 -27 13 -35 0 -3 -6 -12 -10 -18 -10 -7 0 5
16 25 35 21 19 31 35 24 35 -8 0 -16 -6 -19 -12 -3 -10 -7 -10 -20 1 -11 9
-26 11 -44 6 -43 -12 -103 -5 -158 17 -66 27 -97 61 -93 102 3 28 8 33 56 49
62 20 73 16 141 -46 l44 -40 18 24 c10 13 19 30 19 38 0 7 6 11 14 8 15 -6 52
29 57 53 4 17 -42 120 -53 120 -5 0 -8 7 -8 15 0 9 -12 18 -30 22 -23 4 -29
10 -25 23 4 12 -8 34 -35 65 -22 25 -40 52 -40 60 0 7 -10 15 -22 17 -16 2
-24 11 -27 28 -1 14 -6 27 -10 30 -3 3 -17 31 -30 63 -22 56 -23 87 -1 87 14
0 40 25 40 39 0 5 24 14 53 20 74 14 117 18 112 12 -2 -4 3 -15 11 -26 14 -19
14 -19 29 1 8 10 14 24 14 29 0 6 -3 4 -6 -2 -6 -17 -33 -17 -33 0 0 7 5 18
12 25 9 9 9 15 0 24 -9 9 -6 14 11 23 18 9 22 20 23 55 1 73 3 77 39 100 44
27 62 21 71 -25 7 -39 19 -51 37 -37 17 13 77 25 77 15 0 -4 -4 -15 -9 -22
-10 -16 1 -44 26 -70 8 -7 21 -24 30 -37 21 -32 109 -89 162 -105 26 -8 46
-20 49 -31 2 -9 13 -20 23 -23 23 -8 25 -64 7 -220 -6 -55 -12 -136 -13 -180
-2 -44 -5 -138 -9 -210 -6 -147 -1 -171 55 -255 35 -52 37 -61 42 -150 2 -52
12 -118 22 -147 24 -72 76 -131 123 -138 20 -4 59 -11 85 -17 58 -13 193 6
227 32 22 16 22 18 6 42 -9 14 -26 28 -37 31 -18 5 -19 8 -8 29 16 29 13 73
-11 165 -27 99 -26 111 20 189 54 93 60 118 60 274 0 140 25 291 54 334 29 43
79 86 100 86 28 0 37 -17 76 -145 81 -261 108 -325 190 -451 28 -42 50 -86 50
-98 0 -22 37 -84 76 -126 12 -14 28 -47 34 -73 14 -63 30 -87 57 -87 17 0 23
6 23 23 0 45 12 67 34 67 24 0 26 -6 57 -197 7 -40 16 -73 20 -73 4 0 22 26
40 58 18 31 51 84 74 117 66 96 85 147 92 244 5 75 11 96 47 166 22 44 41 85
41 90 0 6 4 16 8 23 9 14 -14 17 -104 13 -31 -2 -59 1 -62 6 -11 17 23 53 49
53 l25 0 -23 31 c-18 24 -20 32 -9 38 17 11 5 32 -13 25 -8 -3 -33 4 -57 14
-64 29 -75 32 -87 20 -10 -10 -42 26 -42 49 0 19 -57 76 -69 69 -6 -4 -11 -3
-11 2 0 15 59 20 94 9 96 -31 117 -42 159 -83 25 -24 48 -41 50 -37 3 5 -13
44 -34 87 -22 44 -39 85 -39 92 0 14 -36 38 -60 39 -10 0 -15 14 -17 50 -7
131 -14 155 -34 125 -7 -11 -8 -8 -4 11 9 38 -42 121 -70 113 -16 -4 -17 -3
-5 6 13 9 12 13 -7 29 -13 11 -23 24 -23 30 0 6 -19 20 -42 31 l-43 21 39 -5
c22 -3 43 -11 47 -18 4 -7 21 -31 38 -53 17 -22 41 -52 52 -67 24 -31 39 -34
77 -14 15 8 40 19 57 26 29 11 29 12 10 26 -10 8 -28 14 -39 14 -20 1 -87 31
-171 79 -45 26 -74 51 -59 51 13 0 34 44 34 70 0 11 -11 27 -25 36 -25 16 -25
16 -6 43 17 23 25 52 22 74 0 4 -10 3 -21 -3 -24 -13 -27 2 -4 24 14 14 14 16
0 16 -28 0 -39 38 -31 108 4 36 11 75 15 86 8 19 9 18 9 -6 1 -16 6 -28 11
-28 6 0 10 -8 10 -17 0 -23 22 -83 31 -83 4 0 9 37 12 83 9 125 23 201 42 231
16 25 22 27 54 20 49 -11 85 -9 130 6 29 9 55 9 122 0 46 -7 154 -14 239 -17
138 -4 169 -2 281 20 203 41 348 96 496 189 41 26 57 57 31 59 -38 2 -65 12
-86 32 -21 19 -23 29 -20 85 3 61 2 63 -30 84 l-33 21 6 -35 c13 -66 -25 -261
-55 -286 -29 -25 -125 -64 -218 -88 -102 -27 -379 -59 -427 -50 -47 9 -139 38
-149 48 -6 4 -20 8 -33 8 -21 0 -23 4 -22 53 1 28 4 79 8 112 4 40 2 69 -7 86
-12 27 -103 93 -209 152 -71 40 -78 61 -26 82 100 42 123 52 193 88 92 48 134
79 185 135 l39 44 -50 -7 c-27 -4 -50 -12 -52 -16 -2 -5 -12 -9 -22 -9 -16 0
-73 -30 -150 -80 -112 -72 -235 -110 -354 -110 -97 0 -114 13 -44 34 30 8 65
25 78 36 l23 20 -84 0 c-50 0 -102 7 -128 16 -41 14 -125 50 -145 61 -4 3 -5
-4 -1 -16 7 -24 -9 -51 -32 -51 -11 0 -11 4 -3 20 9 16 8 22 -6 27 -9 3 -20 0
-26 -8 -7 -11 -11 -11 -15 -1 -3 7 -21 21 -41 31 -66 34 -152 143 -152 193 0
35 -39 80 -109 127 -96 64 -167 93 -230 95 -54 1 -56 0 -59 -26 -3 -29 -22
-40 -22 -13 0 8 -4 15 -10 15 -14 0 -13 -47 1 -56 8 -4 7 -9 -2 -15 -11 -6
-11 -12 1 -33 7 -14 11 -28 8 -31 -2 -3 -11 7 -19 23 -8 15 -16 29 -19 32 -12
12 -30 51 -30 65 0 8 -4 23 -9 33 -6 9 -22 43 -37 75 -14 31 -28 57 -30 57 -2
0 -18 -9 -36 -20 -40 -24 -69 -25 -130 -3 -26 9 -50 14 -54 10 -24 -24 71
-119 136 -137 26 -7 48 -24 74 -57 44 -57 95 -92 145 -101 33 -6 50 -20 110
-89 39 -46 71 -85 71 -89 0 -3 7 -12 15 -21 32 -32 14 -47 -63 -56 -70 -8 -74
-7 -101 19 -24 23 -40 28 -96 31 -65 3 -67 3 -106 -35 -21 -22 -39 -45 -39
-53 0 -8 -5 -20 -12 -27 -20 -20 0 -27 90 -32 l87 -5 -62 -24 c-34 -13 -68
-30 -74 -37 -11 -13 -73 -47 -91 -50 -5 -1 -11 -3 -15 -4 -5 -1 -15 -2 -25 -1
-9 1 -19 -3 -23 -9 -11 -17 -32 -11 -38 11 -7 25 -22 18 -30 -13 -5 -17 5 -33
47 -73 29 -29 71 -65 92 -80 94 -69 144 -135 144 -189 0 -56 -65 -160 -153
-246 -33 -32 -36 -38 -30 -77 4 -31 2 -43 -7 -43 -9 0 -11 9 -6 30 8 41 -9 38
-62 -10 -24 -22 -51 -40 -59 -40 -9 0 -39 11 -67 24 -31 15 -77 27 -116 30
-36 3 -67 5 -69 5 -12 2 36 30 51 31 27 0 68 22 68 36 0 7 -23 15 -61 21 -80
11 -98 33 -54 69 17 13 36 24 43 24 23 0 12 20 -15 26 -63 13 -67 21 -29 59
13 13 21 26 18 29 -9 10 -52 6 -52 -4 0 -21 -21 -9 -30 18 -6 15 -14 36 -19
47 -7 17 -112 340 -142 438 -8 27 -6 30 39 50 26 11 54 20 64 19 9 -2 19 1 22
7 3 5 -16 11 -45 13 -28 1 -53 0 -56 -4 -10 -18 -20 -6 -15 18 2 14 15 30 28
36 17 8 23 17 18 30 -6 20 -3 23 74 86 59 50 71 87 25 76 -72 -16 -91 -23
-127 -48 -21 -14 -44 -26 -51 -26 -7 0 -44 -15 -81 -34 -241 -118 -239 -117
-355 -133 -87 -12 -253 48 -305 111 -14 16 -47 41 -72 54 -48 25 -78 50 -186
156 -64 62 -142 105 -205 113 -47 6 -91 -19 -91 -52 0 -13 -6 -25 -14 -28 -15
-6 -30 -59 -26 -97 1 -14 15 -39 31 -55 29 -31 36 -45 22 -45 -12 0 -123 108
-123 120 0 5 -4 10 -10 10 -5 0 -10 5 -10 11 0 17 -80 129 -92 129 -6 0 -16
-7 -22 -16 -15 -20 -91 -21 -114 -1 -9 8 -24 17 -32 20 -8 4 3 4 24 0 34 -5
38 -3 33 11 -5 11 -1 16 14 16 27 0 33 22 21 83 -7 35 -7 69 -1 102 15 75 4
126 -37 174 -44 51 -74 53 -119 8 -42 -42 -59 -103 -52 -186 3 -44 2 -59 -5
-48 -5 9 -9 52 -10 95 0 92 21 143 76 185 48 37 77 34 129 -13 34 -31 46 -51
51 -81 5 -31 10 -40 24 -37 10 2 18 14 19 28 2 14 7 61 13 105 6 44 15 148 20
230 10 146 32 262 65 332 35 73 128 153 179 153 12 0 30 6 41 13 11 7 72 21
135 31 63 10 176 29 250 43 103 20 176 27 304 29 114 2 188 9 230 20 63 17
158 19 185 4 9 -4 39 -11 66 -15 186 -26 229 -54 300 -194 44 -85 51 -117 95
-421 19 -128 28 -179 35 -189 15 -25 25 -7 25 44 0 62 17 79 70 69 25 -5 37
-2 58 18 39 37 65 48 111 48 52 0 47 -19 -14 -50 -25 -13 -52 -31 -61 -41 -15
-17 -15 -20 5 -48 12 -16 21 -34 21 -40 0 -6 5 -11 10 -11 6 0 10 -8 10 -17 0
-12 3 -14 11 -6 12 12 32 4 87 -36 28 -20 38 -22 58 -12 17 7 24 19 24 38 1
16 7 39 15 53 l15 25 -1 -25 c-1 -14 -1 -44 -1 -67 2 -35 6 -43 21 -43 22 0
74 72 92 128 7 20 36 65 67 101 68 82 213 231 224 231 4 0 8 6 8 13 0 8 24 45
53 84 28 39 66 96 82 127 35 65 50 69 104 28 20 -16 45 -32 56 -37 20 -8 20
-8 0 -13 -32 -7 -125 -71 -125 -85 0 -23 10 -26 45 -11 91 38 225 6 318 -77
53 -46 74 -46 83 1 7 34 8 34 55 19 110 -36 234 -113 277 -173 13 -17 37 -50
54 -74 28 -40 32 -42 52 -29 11 8 31 29 44 48 13 19 33 38 45 43 14 5 17 10
10 13 -37 14 15 53 70 53 26 0 96 -41 124 -73 11 -14 29 -30 40 -35 17 -10 18
-26 16 -259 -3 -226 9 -394 26 -393 3 1 16 9 29 19 28 24 29 74 3 149 l-18 52
51 71 c57 79 92 124 153 198 31 38 44 64 49 99 8 56 19 72 48 72 24 0 98 62
115 97 6 12 11 47 11 78 0 56 -3 64 -67 188 -21 40 -12 52 53 67 120 28 164
67 164 148 0 48 -20 68 -78 75 -55 7 -86 27 -118 79 -27 43 -64 139 -64 168 0
32 -80 109 -162 155 -44 25 -82 45 -84 45 -3 0 -35 14 -72 32 -55 26 -83 32
-154 36 -61 3 -88 1 -88 -7 0 -6 -3 -10 -7 -10 -23 4 -44 -4 -87 -32 -26 -17
-50 -29 -53 -25 -7 7 77 83 124 112 l34 20 -48 23 c-26 13 -78 38 -114 57 -37
19 -73 34 -82 34 -8 0 -17 4 -19 9 -5 13 -36 16 -98 7 -60 -9 -100 -25 -65
-26 11 0 38 -12 60 -26 l40 -26 -74 7 c-99 9 -229 -12 -316 -51 -16 -7 -65
-27 -108 -44 -43 -17 -97 -40 -119 -51 -44 -22 -55 -20 -40 8 19 35 51 55 154
97 57 24 123 52 148 64 25 11 59 23 75 25 17 2 -20 3 -81 2 -87 -1 -125 -7
-177 -25 -37 -13 -67 -29 -67 -36 0 -7 -14 -17 -32 -23 -18 -6 -42 -21 -55
-32 -12 -12 -29 -19 -37 -16 -10 4 -13 1 -10 -8 4 -9 0 -12 -14 -8 -12 3 -36
-7 -63 -27 -24 -17 -51 -29 -61 -27 -23 6 -45 -18 -23 -27 28 -10 15 -26 -22
-26 l-38 0 40 -20 c49 -23 75 -44 75 -59 0 -6 -7 -11 -15 -11 -14 0 -27 -10
-80 -60 -20 -19 -185 -65 -207 -58 -20 7 32 47 104 80 37 17 65 35 61 41 -11
17 -116 -2 -178 -33 -59 -29 -95 -38 -95 -22 0 4 14 24 31 45 36 43 18 52 -32
15 -24 -18 -32 -20 -38 -9 -7 11 -16 8 -45 -14 -20 -15 -36 -31 -36 -36 0 -5
-8 -17 -18 -27 -34 -34 -72 -111 -72 -145 0 -38 17 -52 58 -48 17 2 22 -3 22
-23 0 -31 -38 -61 -87 -71 -21 -4 -60 -18 -86 -31 -56 -28 -82 -31 -73 -9 3 9
-4 21 -19 31 -32 21 -35 58 -4 49 18 -6 20 -4 14 17 -17 54 -84 95 -129 78
-14 -5 -27 -6 -29 -2 -3 4 -8 37 -11 74 -10 87 -31 156 -58 185 -12 13 -25 23
-29 23 -9 0 -46 31 -110 93 -33 32 -49 56 -49 72 0 29 -3 30 -34 10 -22 -15
-24 -14 -40 10 -25 37 -38 21 -35 -44 3 -70 -2 -132 -8 -108 -3 10 -12 17 -21
15 -19 -2 -102 47 -102 61 0 5 -9 11 -19 14 -11 3 -28 19 -39 36 -14 23 -21
28 -30 19 -9 -9 -12 -6 -12 13 0 21 -29 95 -58 148 -4 8 -20 15 -34 17 -34 3
-56 -28 -65 -91 -5 -37 -8 -43 -19 -34 -10 8 -14 8 -14 0 0 -15 -45 -14 -58 2
-6 6 -14 25 -18 41 l-7 30 -9 -25 c-11 -29 -17 -21 -46 68 -11 34 -28 79 -37
100 -9 21 -23 53 -31 71 -8 18 -14 42 -14 53 0 11 -10 42 -22 70 -19 42 -27
49 -46 46 -13 -3 -26 2 -31 11 -7 12 -11 10 -24 -9 -22 -30 -27 -23 -34 47
-10 99 -28 114 -178 144 -69 14 -129 24 -134 21z m166 -83 c-3 -8 -6 -5 -6 6
-1 11 2 17 5 13 3 -3 4 -12 1 -19z m3069 -688 c32 -28 14 -36 -106 -47 -72 -7
-133 -18 -153 -28 -17 -9 -61 -28 -97 -42 -127 -49 -140 -42 -57 32 61 55 117
86 172 96 57 11 223 3 241 -11z m568 -85 c9 -25 -51 -49 -139 -55 -57 -4 -79
-9 -77 -17 2 -15 -88 -18 -103 -4 -6 5 -21 11 -35 13 -14 2 -25 10 -25 18 0
12 18 15 95 17 52 2 122 9 155 17 119 30 121 30 129 11z m75 -19 c10 -12 8
-13 -9 -9 -25 7 -37 23 -17 23 8 0 20 -6 26 -14z m-2392 -392 c-3 -3 -12 -4
-19 -1 -8 3 -5 6 6 6 11 1 17 -2 13 -5z m-2107 -1259 c19 -36 7 -40 -14 -5 -9
17 -13 30 -8 30 5 0 15 -11 22 -25z m-1402 -7 c-6 -18 -28 -21 -28 -4 0 9 7
16 16 16 9 0 14 -5 12 -12z m67 -28 c3 -5 1 -10 -4 -10 -6 0 -11 5 -11 10 0 6
2 10 4 10 3 0 8 -4 11 -10z m35 -63 c0 -5 -4 -5 -10 -2 -5 3 -10 14 -10 23 0
15 2 15 10 2 5 -8 10 -19 10 -23z m-1551 -204 l-1 -98 -29 35 c-35 42 -38 89
-7 130 12 17 25 30 29 30 4 0 8 -44 8 -97z m1936 7 c3 -5 -3 -10 -14 -10 -12
0 -21 5 -21 10 0 6 6 10 14 10 8 0 18 -4 21 -10z m2825 0 c0 -5 -4 -10 -10
-10 -5 0 -10 5 -10 10 0 6 5 10 10 10 6 0 10 -4 10 -10z m-2835 -60 c-17 -17
-48 -4 -53 22 -2 13 2 14 32 4 32 -10 34 -12 21 -26z m46 -32 c-8 -24 -112
-83 -133 -76 -6 2 13 18 43 35 30 17 61 38 68 47 19 23 32 20 22 -6z m2522
-175 c3 -10 8 -39 12 -65 3 -25 19 -88 35 -139 17 -52 30 -99 30 -106 0 -7 6
-32 14 -55 8 -24 24 -74 35 -113 12 -38 39 -115 61 -170 33 -86 55 -168 85
-312 3 -18 20 -49 37 -70 16 -21 34 -48 39 -60 14 -38 21 -194 8 -209 -7 -8
-8 -21 -3 -31 4 -10 8 -26 9 -35 1 -10 8 -24 15 -33 10 -13 9 -15 -9 -15 -18
0 -21 4 -16 20 4 11 2 20 -4 20 -6 0 -11 11 -11 25 0 18 -5 25 -19 25 -11 0
-23 -4 -26 -10 -3 -5 -24 -10 -46 -10 -21 0 -47 -4 -57 -10 -63 -34 -452 -88
-452 -62 0 5 -20 15 -45 21 -25 6 -45 16 -45 21 0 10 -42 22 -138 40 -63 11
-64 11 -113 -20 -27 -18 -47 -36 -44 -40 3 -4 -3 -18 -13 -30 -16 -20 -28 -23
-97 -24 l-80 -1 -12 37 c-15 45 -28 235 -19 272 5 19 13 26 32 26 55 0 94 50
94 120 0 34 -33 114 -58 142 -12 15 -14 35 -8 115 3 54 11 116 17 138 6 22 13
56 16 75 3 19 23 59 45 88 36 47 44 52 79 52 21 0 41 5 44 10 10 16 65 13 59
-3 -2 -7 9 -29 25 -48 17 -19 31 -36 31 -39 0 -3 -14 -50 -30 -105 -16 -54
-27 -101 -25 -104 9 -8 129 0 168 11 33 10 51 28 27 28 -8 0 -110 142 -110
154 0 2 34 21 75 41 41 21 75 43 75 49 0 7 -22 23 -50 37 -47 23 -61 41 -41
54 5 3 13 1 16 -5 5 -8 11 -8 20 0 15 13 42 2 64 -24 18 -21 32 -10 22 17 -43
116 -42 119 104 214 39 25 82 57 98 71 15 14 27 22 27 16 0 -5 5 -1 11 9 5 9
16 17 24 17 7 0 16 -8 18 -17z m-546 -75 l1 -43 -34 39 c-19 21 -34 40 -34 42
0 2 15 4 33 4 31 0 32 -2 34 -42z m-2101 -235 c24 -32 13 -145 -11 -121 -8 7
-16 138 -9 138 4 0 13 -8 20 -17z m4444 -289 c0 -7 -10 -20 -22 -28 -21 -15
-21 -15 -3 -51 16 -29 18 -40 8 -66 -7 -17 -9 -52 -6 -80 5 -43 9 -49 29 -49
17 0 24 -6 24 -20 0 -18 -7 -20 -62 -20 -35 1 -90 7 -123 14 l-60 13 32 12
c24 9 32 20 37 46 4 18 24 55 46 82 l39 50 -19 36 c-24 44 -19 62 23 74 37 11
57 7 57 -13z m-2822 -409 c3 -2 0 -11 -7 -18 -9 -11 -22 -12 -58 -6 -54 10
-63 16 -43 30 14 9 98 5 108 -6z m1619 -44 c24 -19 33 -34 33 -56 -1 -38 -21
-65 -49 -65 -16 0 -21 6 -21 26 0 15 -10 44 -22 65 -17 31 -19 41 -8 53 13 17
19 15 67 -23z m-2182 -68 c32 -32 85 -168 85 -220 0 -16 7 -44 16 -62 23 -46
12 -47 -24 -2 -25 31 -28 40 -16 45 13 5 12 11 -5 44 -21 41 -79 106 -124 138
l-29 20 24 27 c27 31 50 34 73 10z m3715 -163 c0 -5 -9 -10 -20 -10 -11 0 -20
5 -20 10 0 6 9 10 20 10 11 0 20 -4 20 -10z m-1810 -210 c0 -11 -4 -20 -10
-20 -5 0 -10 9 -10 20 0 11 5 20 10 20 6 0 10 -9 10 -20z m-60 -6 c0 -8 -5
-12 -10 -9 -6 4 -8 11 -5 16 9 14 15 11 15 -7z m2170 -798 c0 -8 -7 -16 -15
-20 -15 -5 -21 14 -8 27 11 12 23 8 23 -7z m-1960 -36 c0 -5 -2 -10 -4 -10 -3
0 -8 5 -11 10 -3 6 -1 10 4 10 6 0 11 -4 11 -10z m-95 -200 c3 -5 1 -10 -4
-10 -6 0 -11 5 -11 10 0 6 2 10 4 10 3 0 8 -4 11 -10z"/>
<path d="M5149 4784 c-10 -12 -10 -22 -1 -48 18 -49 14 -129 -8 -197 -12 -34
-20 -62 -18 -64 4 -3 145 22 161 28 8 3 11 21 8 53 -3 40 -5 45 -12 27 -13
-34 -27 -28 -39 17 -6 22 -15 38 -20 35 -6 -4 -10 5 -10 18 0 14 -7 30 -15 37
-9 7 -13 21 -10 31 4 11 -1 21 -12 28 -14 8 -16 12 -5 22 6 7 12 17 12 21 0
13 -17 9 -31 -8z m121 -243 c0 -6 -4 -13 -10 -16 -5 -3 -10 1 -10 9 0 9 5 16
10 16 6 0 10 -4 10 -9z"/>
<path d="M5210 4719 c0 -5 5 -7 10 -4 6 3 10 8 10 11 0 2 -4 4 -10 4 -5 0 -10
-5 -10 -11z"/>
<path d="M5230 4675 c0 -8 7 -15 15 -15 8 0 15 7 15 15 0 8 -7 15 -15 15 -8 0
-15 -7 -15 -15z"/>
<path d="M7080 4700 c0 -32 1 -33 23 -24 18 6 10 54 -9 54 -9 0 -14 -11 -14
-30z"/>
<path d="M5100 8332 c1 -41 58 -197 71 -194 7 2 30 -12 52 -29 22 -18 48 -33
58 -34 9 -1 24 -7 33 -14 15 -13 36 -8 36 9 0 5 -10 21 -23 37 -13 15 -24 39
-25 52 0 14 -10 37 -22 52 -11 16 -20 32 -20 37 0 12 -96 85 -132 100 -27 11
-28 10 -28 -16z"/>
<path d="M2085 7410 c-3 -5 1 -10 9 -10 8 0 18 5 21 10 3 6 -1 10 -9 10 -8 0
-18 -4 -21 -10z"/>
<path d="M4510 7181 c-119 -25 -230 -127 -230 -211 0 -24 25 -27 46 -5 9 8 20
15 25 15 13 0 11 -24 -3 -38 -6 -6 -9 -14 -6 -18 4 -3 14 6 23 20 14 21 15 29
5 41 -10 12 -9 15 4 15 9 0 22 -5 29 -10 7 -6 24 -19 39 -30 37 -28 46 -76 19
-104 -17 -16 -25 -18 -39 -10 -14 9 -22 6 -42 -15 -14 -15 -38 -32 -54 -40
-22 -9 -26 -15 -17 -21 10 -6 7 -12 -12 -25 -14 -9 -31 -14 -37 -10 -9 6 -14
-11 -12 -45 0 -7 -6 -26 -14 -42 -17 -33 -18 -148 -1 -204 25 -83 98 -155 158
-154 19 1 15 5 -21 23 -117 57 -134 243 -30 330 58 49 109 70 175 70 140 0
237 -108 252 -279 5 -67 7 -72 18 -50 19 35 29 158 24 276 -1 36 -49 182 -65
201 -8 8 -14 20 -14 25 0 6 -21 32 -46 58 l-46 48 21 22 c33 35 23 128 -17
152 -25 16 -91 23 -132 15z m-230 -471 c0 -5 -4 -10 -10 -10 -5 0 -10 5 -10
10 0 6 5 10 10 10 6 0 10 -4 10 -10z"/>
<path d="M5263 7164 c-28 -7 -51 -43 -58 -91 -9 -57 2 -67 56 -47 28 11 76 17
134 18 79 0 97 -3 144 -27 30 -15 57 -25 59 -22 11 11 -24 68 -58 95 -73 57
-199 91 -277 74z"/>
<path d="M5367 6820 c-46 -14 -98 -60 -118 -104 -26 -56 -24 -78 4 -38 12 18
46 44 75 58 46 23 62 26 120 22 72 -5 98 -16 150 -63 50 -45 92 -130 92 -189
0 -43 -38 -120 -69 -139 -21 -13 -22 -17 -8 -17 26 0 73 53 82 92 11 46 7 191
-6 225 -38 101 -132 164 -244 162 -27 0 -63 -5 -78 -9z"/>
<path d="M7950 6780 c0 -5 5 -10 10 -10 6 0 10 5 10 10 0 6 -4 10 -10 10 -5 0
-10 -4 -10 -10z"/>
<path d="M2735 6740 c-3 -5 -13 -10 -21 -10 -20 0 -82 -43 -101 -70 -25 -36
-6 -34 38 4 24 20 53 36 65 36 12 0 24 4 26 10 2 5 38 13 81 16 42 4 77 11 77
15 0 13 -158 11 -165 -1z"/>
<path d="M6940 6701 c-73 -30 -130 -100 -130 -161 0 -19 3 -18 27 11 15 18 48
45 72 61 39 24 55 28 118 28 133 0 206 -60 238 -195 l12 -50 7 46 c12 69 -9
152 -47 196 -67 76 -197 104 -297 64z"/>
<path d="M5357 6664 c-64 -35 -94 -131 -65 -210 12 -35 44 -59 34 -26 -3 9 -8
31 -11 47 l-5 30 14 -31 c24 -50 81 -94 122 -94 19 0 44 5 55 10 26 15 25 -5
-2 -23 -34 -25 -4 -28 32 -4 71 47 90 145 44 223 -14 24 -36 49 -48 55 -18 9
-20 9 -9 -2 32 -34 1 -71 -44 -51 -29 14 -31 46 -4 65 20 14 20 15 -11 21 -47
9 -71 7 -102 -10z"/>
<path d="M4525 6630 c-3 -5 -13 -10 -22 -10 -27 0 -82 -49 -98 -87 -8 -19 -15
-58 -15 -86 0 -47 3 -53 50 -99 28 -27 55 -46 60 -43 16 10 12 15 -20 26 -17
7 -30 18 -30 28 0 9 -3 21 -7 27 -5 5 -1 1 9 -8 9 -10 21 -18 27 -18 6 0 11
-3 11 -8 0 -16 62 -34 93 -27 18 3 48 8 67 9 47 4 80 58 80 134 0 58 -11 84
-54 121 -48 42 -136 66 -151 41z m159 -62 c8 -14 7 -21 -6 -34 -29 -29 -76 3
-61 42 7 20 52 15 67 -8z"/>
<path d="M6960 6542 c-50 -25 -80 -75 -79 -131 0 -41 1 -44 11 -21 6 14 15 36
21 50 6 14 11 29 11 35 1 5 10 11 21 14 l20 3 -20 -22 c-27 -30 -24 -107 7
-153 16 -26 34 -38 70 -48 26 -7 48 -16 48 -20 0 -14 40 -16 51 -2 10 11 10
16 0 23 -9 5 -10 10 -3 14 6 3 13 2 17 -4 13 -22 34 -8 54 36 27 56 26 121 -1
116 -19 -3 -24 13 -8 23 15 9 -24 55 -68 82 -45 28 -104 30 -152 5z m175 -52
c3 -11 14 -20 23 -20 10 0 3 -7 -15 -16 -18 -9 -39 -14 -48 -10 -15 5 -21 47
-8 59 13 14 42 6 48 -13z"/>
<path d="M2856 6536 c-22 -8 -43 -22 -48 -30 -5 -9 -16 -16 -23 -16 -8 0 -15
-7 -15 -15 0 -8 -4 -15 -8 -15 -16 0 -42 -77 -42 -123 0 -59 14 -67 29 -17 13
44 69 90 108 90 12 0 24 4 27 9 12 19 112 5 169 -23 72 -35 100 -74 101 -137
1 -37 -4 -53 -24 -74 -33 -35 -69 -61 -100 -70 -24 -7 -24 -7 -10 11 70 86 54
193 -39 254 -71 46 -171 18 -207 -59 -41 -86 21 -212 111 -225 25 -4 32 -26 7
-26 -28 0 -34 -11 -14 -26 30 -23 109 -17 162 12 64 35 105 87 131 168 19 58
20 73 11 122 -7 30 -24 74 -40 97 -55 83 -193 127 -286 93z"/>
<path d="M7805 6512 c-33 -21 -95 -87 -95 -102 0 -6 19 2 42 17 67 45 158 35
229 -25 40 -33 62 -92 61 -164 0 -38 4 -70 8 -73 11 -7 30 84 30 143 0 68 -17
117 -52 152 -67 67 -162 89 -223 52z"/>
<path d="M3351 6438 c0 -7 4 -22 9 -33 7 -17 9 -15 9 13 1 17 -3 32 -9 32 -5
0 -10 -6 -9 -12z"/>
<path d="M6820 6384 c0 -17 67 -74 87 -74 12 0 9 7 -11 25 -15 14 -32 25 -38
25 -6 0 -17 8 -24 18 -7 9 -14 12 -14 6z"/>
<path d="M7765 6368 c-21 -5 -50 -19 -63 -31 -22 -20 -23 -28 -19 -102 6 -118
41 -159 144 -170 l60 -7 26 53 c35 75 41 117 23 159 -30 72 -100 112 -171 98z
m36 -71 c-11 -30 -51 -35 -58 -8 -3 12 -10 21 -17 21 -6 0 2 9 19 20 27 17 31
18 46 4 13 -11 15 -22 10 -37z"/>
<path d="M5388 6353 c6 -2 18 -2 25 0 6 3 1 5 -13 5 -14 0 -19 -2 -12 -5z"/>
<path d="M4510 6279 c0 -5 5 -7 10 -4 6 3 10 8 10 11 0 2 -4 4 -10 4 -5 0 -10
-5 -10 -11z"/>
<path d="M4540 6280 c0 -5 14 -10 30 -10 17 0 30 5 30 10 0 6 -13 10 -30 10
-16 0 -30 -4 -30 -10z"/>
<path d="M4863 6170 c-10 -11 -23 -20 -30 -20 -7 0 -14 -6 -14 -12 -1 -7 -2
-20 -3 -28 -2 -23 14 -30 69 -29 59 0 170 38 170 58 0 16 -94 49 -143 50 -20
1 -38 -6 -49 -19z"/>
<path d="M8017 6124 c-10 -14 -38 -34 -63 -45 -24 -12 -44 -23 -44 -24 0 -8
75 9 78 17 2 4 10 8 17 8 17 0 38 35 33 55 -2 9 -9 5 -21 -11z"/>
<path d="M5254 6065 c-59 -46 -116 -58 -254 -52 -81 4 -150 13 -195 26 -127
37 -145 27 -120 -71 51 -194 143 -299 286 -323 86 -15 190 25 224 86 35 62 55
104 55 116 0 7 5 13 10 13 6 0 10 9 10 19 0 11 5 23 10 26 6 3 10 15 10 26 0
10 4 19 9 19 5 0 15 25 22 56 12 52 11 58 -6 70 -24 18 -25 18 -61 -11z m-50
-74 c7 -10 -19 -33 -61 -55 -64 -32 -298 -13 -298 24 0 12 19 15 95 17 52 1
118 6 145 11 67 13 113 14 119 3z"/>
<path d="M7362 5963 c-32 -6 -25 -32 17 -60 51 -35 181 -29 181 7 0 6 -11 10
-24 10 -13 0 -29 6 -35 14 -6 8 -26 16 -44 19 -18 3 -41 7 -52 10 -11 2 -30 3
-43 0z"/>
<path d="M7054 5936 c-3 -8 2 -41 11 -73 50 -173 145 -256 309 -270 118 -9
168 11 267 107 56 55 75 80 63 80 -11 0 -32 -7 -49 -16 -76 -42 -190 -33 -340
26 -76 30 -108 54 -189 140 -23 23 -64 27 -72 6z"/>
<path d="M5725 5860 c-3 -5 -1 -10 4 -10 6 0 11 5 11 10 0 6 -2 10 -4 10 -3 0
-8 -4 -11 -10z"/>
<path d="M3553 5620 c-33 -19 -90 -96 -80 -106 3 -3 32 -12 65 -19 33 -8 104
-32 157 -54 75 -31 95 -36 90 -23 -4 9 -12 31 -17 47 -31 93 -77 148 -138 165
-45 13 -40 13 -77 -10z"/>
<path d="M5680 5592 c0 -4 4 -12 10 -18 5 -5 14 -32 20 -59 5 -28 17 -79 25
-115 8 -36 20 -94 26 -130 32 -199 30 -194 72 -201 46 -7 54 3 29 39 -22 31
-29 51 -43 124 -5 29 -14 72 -19 96 -6 23 -14 61 -18 85 -8 44 -57 153 -78
175 -14 14 -24 16 -24 4z"/>
<path d="M1370 4890 c0 -5 5 -10 10 -10 6 0 10 5 10 10 0 6 -4 10 -10 10 -5 0
-10 -4 -10 -10z"/>
<path d="M1215 4601 c-17 -7 -14 -9 15 -13 19 -3 39 -2 45 3 5 6 5 9 -2 9 -6
0 -17 2 -25 4 -7 3 -22 1 -33 -3z"/>
<path d="M1330 4500 c-8 -5 -33 -16 -54 -25 -22 -8 -36 -18 -33 -22 6 -5 27
-1 120 24 14 4 16 8 6 19 -13 16 -18 16 -39 4z"/>
<path d="M7695 4460 c28 -12 37 -12 30 0 -3 6 -16 10 -28 9 -21 0 -21 -1 -2
-9z"/>
<path d="M5823 3820 c-3 -10 -16 -26 -29 -35 -16 -10 -21 -21 -17 -33 6 -15 4
-15 -9 -4 -14 11 -18 10 -28 -8 -6 -12 -9 -29 -6 -37 4 -9 1 -22 -5 -29 -8
-10 -7 -21 2 -44 16 -35 25 -38 34 -10 4 11 10 18 15 15 16 -10 70 116 70 162
0 44 -18 59 -27 23z m-63 -100 c0 -5 -4 -10 -10 -10 -5 0 -10 5 -10 10 0 6 5
10 10 10 6 0 10 -4 10 -10z"/>
<path d="M3980 3670 c0 -5 7 -10 16 -10 8 0 12 5 9 10 -3 6 -10 10 -16 10 -5
0 -9 -4 -9 -10z"/>
<path d="M2695 3531 c-28 -7 -27 -8 20 -15 28 -4 62 -11 78 -16 38 -13 34 5
-7 24 -36 17 -44 18 -91 7z"/>
<path d="M2865 3473 c22 -9 42 -20 43 -25 2 -4 9 -8 16 -8 7 0 60 -50 117
-110 65 -69 134 -130 184 -163 102 -68 105 -70 105 -59 0 23 -77 103 -150 157
-44 32 -80 62 -80 66 0 4 -17 18 -37 30 -21 13 -40 26 -43 30 -9 12 -119 79
-130 79 -5 0 -10 5 -10 10 0 6 -12 10 -27 9 -26 0 -25 -1 12 -16z"/>
<path d="M2526 3298 c-9 -17 -16 -53 -16 -80 0 -47 3 -53 58 -107 57 -56 124
-95 240 -140 66 -26 152 -69 172 -86 28 -24 111 -66 158 -81 129 -39 248 15
245 111 -2 53 -25 80 -109 127 -90 51 -184 117 -184 131 0 5 -27 35 -61 67
-61 58 -66 60 -170 76 -20 3 -53 1 -75 -5 -30 -8 -43 -8 -61 4 -27 18 -94 20
-111 3 -10 -10 -17 -10 -32 0 -29 18 -37 15 -54 -20z"/>
<path d="M8185 3171 c-3 -2 -25 -5 -51 -7 -26 -2 -64 -13 -85 -23 -23 -12 -41
-16 -44 -11 -8 13 -45 13 -45 1 0 -5 -16 -28 -35 -51 -19 -23 -35 -48 -35 -56
0 -8 -4 -14 -9 -14 -14 0 -28 -53 -41 -145 -6 -43 -17 -89 -25 -102 -8 -12
-15 -29 -15 -37 0 -8 -3 -16 -8 -18 -4 -1 -30 -37 -57 -78 -54 -80 -61 -116
-29 -151 14 -15 31 -19 84 -19 141 0 247 69 306 198 19 41 39 92 46 113 6 22
17 44 25 50 7 6 13 16 13 21 0 12 79 111 96 121 8 4 14 14 14 21 0 7 9 21 21
32 32 29 79 103 79 124 0 10 6 21 13 23 7 3 3 6 -8 7 -40 4 -207 5 -210 1z"/>
<path d="M5788 3093 c7 -3 16 -2 19 1 4 3 -2 6 -13 5 -11 0 -14 -3 -6 -6z"/>
<path d="M4860 2665 c0 -22 4 -34 10 -30 6 3 10 17 10 30 0 13 -4 27 -10 30
-6 4 -10 -8 -10 -30z"/>
<path d="M4820 2530 c0 -5 5 -10 10 -10 6 0 10 5 10 10 0 6 -4 10 -10 10 -5 0
-10 -4 -10 -10z"/>
</g>
</svg>
